<?xml version="1.0" encoding="utf-8"?>
<!-- Generator: Adobe Illustrator 24.0.2, SVG Export Plug-In . SVG Version: 6.00 Build 0)  -->
<svg version="1.1" id="Layer_1" xmlns="http://www.w3.org/2000/svg" xmlns:xlink="http://www.w3.org/1999/xlink" x="0px" y="0px"
	 viewBox="0 0 22.4 31.6" style="enable-background:new 0 0 22.4 31.6;" xml:space="preserve">
<style type="text/css">
	.st0{fill:#425BA8;}
	.st1{fill:#4566AF;}
	.st2{fill:#EBEAEA;}
	.st3{fill:#FFFFFF;}
</style>
<g id="layer1_1_" transform="translate(-193.633,-276.3622)">
	<g id="g3013_1_" transform="translate(119,276.3622)">
		<polygon id="polygon2989_1_" class="st0" points="97,6.2 95,29 85.8,31.6 76.7,29 74.6,6.2 		"/>
		<polygon id="polygon2991_1_" class="st1" points="93.2,27.6 94.9,8.1 85.8,8.1 85.8,29.6 		"/>
		<polygon id="polygon2993_1_" class="st2" points="79.3,16.5 79.5,19.3 85.8,19.3 85.8,16.5 		"/>
		<polygon id="polygon2995_1_" class="st2" points="85.8,10.9 85.8,10.9 78.8,10.9 79,13.7 85.8,13.7 		"/>
		<polygon id="polygon2997_1_" class="st2" points="85.8,26.7 85.8,23.8 85.8,23.8 82.7,23 82.5,20.7 81,20.7 79.7,20.7 80.1,25.1 
			85.8,26.7 		"/>
		<path id="path2999_1_" d="M79.9,0h3.4v1.4h-2v1.4h2v1.4h-3.4V0z"/>
		<path id="path3001_1_" d="M84,0h3.4v1.2h-2v0.2h2v2.8H84V3h2V2.8h-2V0z"/>
		<path id="path3003_1_" d="M88,0h3.4v1.2h-2v0.2h2v2.8H88V3h2V2.8h-2V0z"/>
		<polygon id="polygon3005_1_" class="st3" points="89.2,19.3 88.9,23 85.8,23.8 85.8,26.7 91.5,25.1 91.6,24.7 92.2,17.3 
			92.3,16.5 92.8,10.9 85.8,10.9 85.8,13.7 89.7,13.7 89.5,16.5 85.8,16.5 85.8,19.3 		"/>
	</g>
</g>
</svg>
