<?xml version="1.0" encoding="utf-8"?>
<!-- Generator: Adobe Illustrator 24.0.2, SVG Export Plug-In . SVG Version: 6.00 Build 0)  -->
<svg version="1.1" id="Layer_1" xmlns="http://www.w3.org/2000/svg" xmlns:xlink="http://www.w3.org/1999/xlink" x="0px" y="0px"
	 viewBox="0 0 28 27.3" style="enable-background:new 0 0 28 27.3;" xml:space="preserve">
<style type="text/css">
	.st0{fill:#171715;}
</style>
<path class="st0" d="M14,0C6.3,0,0,6.3,0,14c0,6.2,4,11.4,9.6,13.3c0.7,0.1,1-0.3,1-0.7c0-0.3,0-1.4,0-2.6c-3.9,0.8-4.7-1.7-4.7-1.7
	c-0.6-1.6-1.6-2-1.6-2c-1.3-0.9,0.1-0.9,0.1-0.9c1.4,0.1,2.1,1.4,2.1,1.4c1.2,2.1,3.3,1.5,4.1,1.2c0.1-0.9,0.5-1.5,0.9-1.9
	c-3.1-0.4-6.4-1.6-6.4-6.9c0-1.5,0.5-2.8,1.4-3.8C6.4,9.2,5.9,7.7,6.6,5.8c0,0,1.2-0.4,3.9,1.4c1.1-0.3,2.3-0.5,3.5-0.5
	c1.2,0,2.4,0.2,3.5,0.5c2.7-1.8,3.8-1.4,3.8-1.4c0.8,1.9,0.3,3.4,0.1,3.7c0.9,1,1.4,2.2,1.4,3.8c0,5.4-3.3,6.6-6.4,6.9
	c0.5,0.4,1,1.3,1,2.6c0,1.9,0,3.4,0,3.8c0,0.4,0.3,0.8,1,0.7C24,25.4,28,20.2,28,14C28,6.3,21.7,0,14,0z M5.2,20C5.2,20,5.1,20,5,20
	c-0.1,0-0.2-0.1-0.1-0.2c0-0.1,0.1-0.1,0.2,0C5.2,19.8,5.3,19.9,5.2,20z M5.9,20.6c-0.1,0.1-0.2,0-0.3-0.1c-0.1-0.1-0.1-0.2,0-0.3
	c0.1-0.1,0.2,0,0.3,0.1C6,20.4,6,20.5,5.9,20.6z M6.4,21.4c-0.1,0.1-0.2,0-0.3-0.1C6,21.1,6,21,6.1,20.9c0.1-0.1,0.2,0,0.3,0.1
	C6.5,21.1,6.5,21.3,6.4,21.4L6.4,21.4z M7.2,22.3c-0.1,0.1-0.2,0.1-0.4-0.1c-0.1-0.1-0.2-0.3-0.1-0.4c0.1-0.1,0.2-0.1,0.4,0.1
	C7.3,22,7.3,22.2,7.2,22.3z M8.2,22.6c0,0.1-0.2,0.2-0.4,0.1c-0.2,0-0.3-0.2-0.2-0.3c0-0.1,0.2-0.2,0.4-0.1
	C8.2,22.3,8.3,22.5,8.2,22.6L8.2,22.6z M9.4,22.7c0,0.1-0.1,0.2-0.3,0.2c-0.2,0-0.3-0.1-0.3-0.2c0-0.1,0.1-0.2,0.3-0.2
	C9.3,22.5,9.4,22.6,9.4,22.7z M10.6,22.7c0,0.1-0.1,0.2-0.3,0.3c-0.2,0-0.3,0-0.3-0.2c0-0.1,0.1-0.2,0.3-0.3
	C10.4,22.5,10.6,22.5,10.6,22.7z"/>
</svg>
