<?xml version="1.0" encoding="utf-8"?>
<!-- Generator: Adobe Illustrator 24.0.2, SVG Export Plug-In . SVG Version: 6.00 Build 0)  -->
<svg version="1.1" id="Layer_1" xmlns="http://www.w3.org/2000/svg" xmlns:xlink="http://www.w3.org/1999/xlink" x="0px" y="0px"
	 viewBox="0 0 22.6 31.8" style="enable-background:new 0 0 22.6 31.8;" xml:space="preserve">
<style type="text/css">
	.st0{fill:#E34E25;}
	.st1{fill:#F06629;}
	.st2{fill:#EBEAEA;}
	.st3{fill:#FFFFFF;}
</style>
<g>
	<path d="M2.1,0h1.4v1.4h1.3V0h1.4v4.3H4.9V2.9H3.5v1.4H2.1 M8.2,1.4H6.9V0h4v1.4H9.6v2.9H8.2 M11.5,0H13l0.9,1.5L14.8,0h1.5v4.3
		h-1.4V2.2l-1,1.5l-1-1.5v2.1h-1.4 M17,0h1.4v2.9h2v1.4H17"/>
	<path class="st0" d="M2.1,29.3L0,6.3h22.6l-2.1,23l-9.2,2.6"/>
	<path class="st1" d="M11.3,29.9V8.1h9.2l-1.8,19.6"/>
	<path class="st2" d="M4.2,11h7.1v2.8h-4l0.3,2.9h3.7v2.8H5 M5.1,20.9h2.8l0.2,2.3l3.2,0.8V27l-5.8-1.6"/>
	<path class="st3" d="M18.3,11h-7.1v2.8h6.8 M17.8,16.7h-6.6v2.8h3.5l-0.3,3.7L11.3,24v2.9l5.8-1.6"/>
</g>
</svg>
