<?xml version="1.0" encoding="utf-8"?>
<!-- Generator: Adobe Illustrator 24.0.2, SVG Export Plug-In . SVG Version: 6.00 Build 0)  -->
<svg version="1.1" id="Layer_1" xmlns="http://www.w3.org/2000/svg" xmlns:xlink="http://www.w3.org/1999/xlink" x="0px" y="0px"
	 viewBox="0 0 24.5 24.5" style="enable-background:new 0 0 24.5 24.5;" xml:space="preserve">
<style type="text/css">
	.st0{fill:#F5DE17;}
</style>
<g>
	<path class="st0" d="M0,0h24.5v24.5H0V0z"/>
	<path d="M6.4,20.5l1.9-1.1C8.7,20,9,20.5,9.8,20.5c0.8,0,1.2-0.3,1.2-1.4v-7.8h2.3v7.9c0,2.4-1.4,3.5-3.4,3.5
		C8.1,22.6,7,21.6,6.4,20.5"/>
	<path d="M14.6,20.2l1.9-1.1c0.5,0.8,1.1,1.4,2.3,1.4c1,0,1.6-0.5,1.6-1.1c0-0.8-0.6-1.1-1.7-1.5L18,17.6c-1.7-0.7-2.8-1.6-2.8-3.5
		c0-1.7,1.3-3,3.4-3c1.5,0,2.5,0.5,3.3,1.8l-1.8,1.2c-0.4-0.7-0.8-1-1.5-1c-0.7,0-1.1,0.4-1.1,1c0,0.7,0.4,1,1.4,1.4l0.6,0.2
		c2,0.8,3.1,1.7,3.1,3.6c0,2.1-1.6,3.2-3.8,3.2C16.6,22.6,15.3,21.6,14.6,20.2"/>
</g>
</svg>
