<?xml version="1.0" encoding="utf-8"?>
<!-- Generator: Adobe Illustrator 24.0.2, SVG Export Plug-In . SVG Version: 6.00 Build 0)  -->
<svg version="1.1" id="Layer_1" xmlns="http://www.w3.org/2000/svg" xmlns:xlink="http://www.w3.org/1999/xlink" x="0px" y="0px"
	 viewBox="0 0 25 24.6" style="enable-background:new 0 0 25 24.6;" xml:space="preserve">
<style type="text/css">
	.st0{fill:#00556C;}
</style>
<g>
	<path class="st0" d="M23,19c-1.4,0-2.4,0.1-3.3,0.5c-0.3,0.1-0.7,0.1-0.7,0.4c0.1,0.1,0.2,0.4,0.3,0.5c0.2,0.3,0.6,0.8,0.9,1
		c0.4,0.3,0.7,0.5,1.1,0.8c0.7,0.4,1.4,0.6,2.1,1.1c0.4,0.2,0.7,0.5,1.1,0.8c0.2,0.1,0.3,0.4,0.5,0.4v-0.1c-0.1-0.2-0.2-0.4-0.3-0.5
		c-0.2-0.2-0.3-0.3-0.5-0.5c-0.5-0.7-1.1-1.2-1.8-1.7c-0.5-0.4-1.7-0.9-2-1.5c0,0,0,0,0,0c0.4,0,0.8-0.2,1.2-0.3
		c0.6-0.2,1.1-0.1,1.7-0.3c0.3-0.1,0.5-0.2,0.8-0.2v-0.2c-0.3-0.3-0.5-0.7-0.9-1c-0.9-0.7-1.8-1.5-2.8-2.1c-0.5-0.3-1.2-0.6-1.8-0.9
		c-0.2-0.1-0.5-0.2-0.7-0.3c-0.3-0.4-0.5-0.9-0.7-1.3c-0.5-0.9-1-2-1.4-3c-0.3-0.7-0.5-1.3-0.9-1.9c-1.8-2.9-3.7-4.6-6.6-6.4
		C7.9,2.1,7.2,1.9,6.4,1.7c-0.4,0-0.9-0.1-1.3-0.1C4.8,1.5,4.5,1.2,4.3,1.1c-1-0.6-3.5-1.9-4.2-0.2C-0.4,2,0.8,3.1,1.2,3.6
		C1.5,4,1.8,4.5,2,4.9c0.1,0.3,0.2,0.6,0.3,0.9c0.3,0.7,0.5,1.6,0.9,2.3c0.2,0.4,0.4,0.7,0.6,1.1C4,9.3,4.2,9.4,4.3,9.7
		C4,10.1,4,10.6,3.9,11c-0.6,1.9-0.4,4.3,0.5,5.7c0.3,0.4,0.9,1.4,1.8,1c0.8-0.3,0.6-1.3,0.8-2.1c0.1-0.2,0-0.3,0.1-0.5v0
		c0.2,0.5,0.5,0.9,0.7,1.4c0.5,0.8,1.4,1.7,2.2,2.3c0.4,0.3,0.7,0.8,1.2,1v-0.1h0c-0.1-0.2-0.3-0.2-0.4-0.3c-0.3-0.3-0.6-0.7-0.9-1
		c-0.7-1-1.3-2-1.9-3.1c-0.3-0.5-0.5-1.1-0.7-1.6c-0.1-0.2-0.1-0.5-0.3-0.6c-0.3,0.4-0.6,0.7-0.8,1.2c-0.3,0.7-0.4,1.6-0.5,2.6
		c-0.1,0,0,0-0.1,0c-0.5-0.1-0.7-0.7-0.9-1.2c-0.5-1.2-0.6-3.1-0.2-4.5C4.7,10.8,5.2,9.7,5,9.3C4.9,9,4.5,8.8,4.4,8.6
		C4.1,8.2,3.9,7.8,3.7,7.5c-0.4-1-0.6-2-1.1-3C2.5,4.1,2.1,3.6,1.8,3.2C1.5,2.7,1.2,2.4,0.9,1.9C0.8,1.7,0.7,1.4,0.8,1.2
		C0.9,1,0.9,1,1.1,1C1.3,0.8,1.9,1,2.1,1.1C2.8,1.4,3.3,1.6,3.8,2c0.2,0.2,0.5,0.5,0.8,0.6H5c0.5,0.1,1.2,0,1.7,0.2
		C7.6,3,8.4,3.4,9.1,3.9c2.2,1.4,4.1,3.4,5.3,5.8c0.2,0.4,0.3,0.7,0.5,1.2c0.4,0.8,0.8,1.7,1.2,2.5c0.4,0.8,0.7,1.6,1.2,2.3
		c0.3,0.4,1.3,0.5,1.7,0.7c0.3,0.2,0.9,0.3,1.2,0.5c0.6,0.4,1.2,0.8,1.7,1.2C22.1,18.2,23,18.7,23,19L23,19z"/>
	<path class="st0" d="M5.7,4.2c-0.3,0-0.5,0-0.7,0.1v0h0C5.2,4.6,5.4,4.8,5.6,5C5.7,5.3,5.8,5.6,6,5.8c0,0,0,0,0,0
		C6.2,5.6,6.4,5.4,6.4,5C6.3,4.8,6.2,4.7,6.1,4.6C6,4.4,5.8,4.3,5.7,4.2L5.7,4.2z"/>
</g>
</svg>
