<?xml version="1.0" encoding="utf-8"?>
<!-- Generator: Adobe Illustrator 24.0.2, SVG Export Plug-In . SVG Version: 6.00 Build 0)  -->
<svg version="1.1" id="Layer_1" xmlns="http://www.w3.org/2000/svg" xmlns:xlink="http://www.w3.org/1999/xlink" x="0px" y="0px"
	 viewBox="0 0 33.9 33.9" style="enable-background:new 0 0 33.9 33.9;" xml:space="preserve">
<style type="text/css">
	.st0{fill:#3EBDB2;}
</style>
<g>
	<path class="st0" d="M20.3,21.9L12,20.2c0,0.1-0.1,0.1-0.1,0.2l7.6,11l0.5-0.5l1.3-8C20.7,22.8,20.4,22.4,20.3,21.9L20.3,21.9z
		 M17.2,11.1c-0.3,0.5-0.8,0.8-1.5,0.8c-0.1,0-0.2,0-0.3,0l-3.8,5.9l10.1-4.4c0,0,0-0.1,0-0.1c0-0.1,0-0.2,0-0.2L17.2,11.1
		L17.2,11.1z M17.5,10l4.9,2.1c0.2-0.1,0.3-0.2,0.5-0.3l0.8-5l-3.1-3.1l-3.5,5.4C17.4,9.4,17.5,9.7,17.5,10L17.5,10z M27.8,10.8
		l-3.1-3.1L24,11.9c0.2,0.1,0.3,0.2,0.4,0.3L27.8,10.8L27.8,10.8z M20.4,20.8c0.2-0.4,0.7-0.7,1.2-0.8l0.9-5.5
		c-0.1,0-0.1-0.1-0.2-0.2l-10.2,4.4c0,0.1,0,0.2,0.1,0.3L20.4,20.8L20.4,20.8z M28.6,11.7l-3.6,1.5l8.8,3.8l0,0L28.6,11.7L28.6,11.7
		z M22.3,23l-1.1,6.7l6.2-6.2l-4.5-0.9C22.8,22.7,22.5,22.9,22.3,23L22.3,23z M10.2,21.3c-0.2,0-0.4,0-0.6-0.1l-2.1,3.2l-0.8-0.8
		l2-3.1c0-0.1-0.1-0.1-0.1-0.2L5,21.9L4.1,21L8,19.4l-7-1.5l-1-1l0.3-0.3l8.1,1.7c0.1-0.2,0.2-0.3,0.4-0.5l-3.9-5.7l0.8-0.8l4.1,6
		c0.1,0,0.3-0.1,0.4-0.1c0.2,0,0.3,0,0.5,0.1l3.8-6C14.2,11,14,10.6,14,10.1c0-0.1,0-0.3,0-0.4l-4.8-2l0.8-0.8l4.5,1.9
		c0.3-0.2,0.7-0.4,1.1-0.4c0.2,0,0.4,0,0.6,0.1l3.5-5.5L16.9,0L0,16.9l16.9,16.9l1.7-1.7L11,21.1C10.7,21.2,10.5,21.3,10.2,21.3
		L10.2,21.3z M23.6,14.8l-0.9,5.6c0.3,0.2,0.5,0.6,0.6,1l5.1,1.1l4.7-4.7l-8.4-3.6C24.3,14.5,24,14.7,23.6,14.8L23.6,14.8z"/>
</g>
</svg>
