<?xml version="1.0" encoding="utf-8"?>
<!-- Generator: Adobe Illustrator 24.0.2, SVG Export Plug-In . SVG Version: 6.00 Build 0)  -->
<svg version="1.1" id="Layer_1" xmlns="http://www.w3.org/2000/svg" xmlns:xlink="http://www.w3.org/1999/xlink" x="0px" y="0px"
	 viewBox="0 0 27.4 27.4" style="enable-background:new 0 0 27.4 27.4;" xml:space="preserve">
<path d="M12.8,0c-0.1,0-0.2,0-0.4,0C8.5,0.4,4.9,2.5,2.5,5.7c-1.3,1.8-2.1,3.8-2.4,6c-0.1,0.8-0.1,1-0.1,2s0,1.2,0.1,2
	c0.7,5.1,4.4,9.5,9.4,11.1c0.9,0.3,1.8,0.5,2.9,0.6c0.4,0,2.2,0,2.6,0c1.8-0.2,3.4-0.7,4.9-1.4c0.2-0.1,0.3-0.2,0.2-0.2
	c0,0-1-1.4-2.2-3l-2.2-3L13,15.7c-1.5-2.2-2.8-4.1-2.8-4.1c0,0,0,1.8,0,4c0,3.9,0,4-0.1,4.1c-0.1,0.1-0.1,0.2-0.2,0.2
	c-0.1,0-0.2,0.1-0.6,0.1H8.9L8.8,20c-0.1-0.1-0.1-0.1-0.2-0.2l-0.1-0.1l0-5.4l0-5.4l0.1-0.1c0-0.1,0.1-0.1,0.2-0.2
	C9,8.6,9,8.6,9.5,8.6c0.5,0,0.6,0,0.8,0.2c0,0,1.5,2.3,3.3,5s4.2,6.4,5.4,8.2l2.2,3.3l0.1-0.1c1-0.6,2-1.5,2.8-2.5
	c1.7-2,2.9-4.4,3.2-7c0.1-0.8,0.1-1,0.1-2s0-1.2-0.1-2c-0.7-5.1-4.4-9.5-9.4-11.1C17,0.4,16.1,0.2,15.1,0C14.8,0,13,0,12.8,0L12.8,0
	z M18.4,8.3c0.1,0.1,0.2,0.2,0.3,0.3c0,0.1,0,1.6,0,4.9l0,4.8L17.9,17L17,15.7v-3.5c0-2.3,0-3.5,0-3.6c0-0.2,0.1-0.3,0.3-0.3
	c0.1-0.1,0.2-0.1,0.6-0.1C18.3,8.2,18.3,8.2,18.4,8.3L18.4,8.3z"/>
</svg>
