<?xml version="1.0" encoding="utf-8"?>
<!-- Generator: Adobe Illustrator 24.0.2, SVG Export Plug-In . SVG Version: 6.00 Build 0)  -->
<svg version="1.1" id="Layer_1" xmlns="http://www.w3.org/2000/svg" xmlns:xlink="http://www.w3.org/1999/xlink" x="0px" y="0px"
	 viewBox="0 0 37.4 19.5" style="enable-background:new 0 0 37.4 19.5;" xml:space="preserve">
<style type="text/css">
	.st0{fill-rule:evenodd;clip-rule:evenodd;fill:#8892BD;}
	.st1{fill-rule:evenodd;clip-rule:evenodd;fill:#232531;}
</style>
<g>
	<ellipse class="st0" cx="18.7" cy="9.7" rx="18.7" ry="9.7"/>
	<path class="st1" d="M5.2,15.5l2-10.4H12c2,0.1,3.1,1.2,3.1,2.9c0,3.1-2.4,4.9-4.6,4.7H8.2l-0.5,2.7H5.2z M8.7,10.9L9.3,7H11
		c0.9,0,1.5,0.4,1.5,1.2c-0.1,2.2-1.2,2.6-2.3,2.7L8.7,10.9L8.7,10.9z M14.6,12.8l2-10.4h2.4l-0.5,2.7h2.3c2,0.1,2.8,1.2,2.6,2.4
		l-0.9,5.2H20l0.9-4.7C21,7.4,21,7,20.1,7h-1.9l-1.2,5.8H14.6z M22.4,15.5l2-10.4h4.7c2,0.1,3.1,1.2,3.1,2.9c0,3.1-2.4,4.9-4.6,4.7
		h-2.3l-0.5,2.7H22.4z M25.9,10.9L26.5,7h1.7c0.9,0,1.5,0.4,1.5,1.2c-0.1,2.2-1.2,2.6-2.3,2.7H25.9L25.9,10.9z"/>
</g>
</svg>
