<?xml version="1.0" encoding="utf-8"?>
<!-- Generator: Adobe Illustrator 24.0.2, SVG Export Plug-In . SVG Version: 6.00 Build 0)  -->
<svg version="1.1" id="Layer_1" xmlns="http://www.w3.org/2000/svg" xmlns:xlink="http://www.w3.org/1999/xlink" x="0px" y="0px"
	 viewBox="0 0 31 27.6" style="enable-background:new 0 0 31 27.6;" xml:space="preserve">
<style type="text/css">
	.st0{fill:#6FCEEF;}
</style>
<g>
	<path class="st0" d="M31,13.8c0-2.1-2.6-4-6.5-5.2c0.9-4,0.5-7.2-1.3-8.2C22.8,0.1,22.3,0,21.8,0v0c-1.7,0-4,1.2-6.3,3.4
		C13.2,1.2,10.9,0,9.2,0v0c-0.5,0-1,0.1-1.4,0.4C6,1.4,5.6,4.6,6.5,8.6C2.6,9.8,0,11.7,0,13.8c0,2.1,2.6,4,6.5,5.2
		c-0.9,4-0.5,7.2,1.3,8.2c0.4,0.2,0.9,0.4,1.4,0.4c1.7,0,4-1.2,6.3-3.4c2.3,2.1,4.6,3.4,6.3,3.4c0.5,0,1-0.1,1.4-0.4
		c1.8-1,2.2-4.2,1.3-8.2C28.4,17.8,31,15.8,31,13.8z M21.8,1.4L21.8,1.4c0.3,0,0.5,0.1,0.7,0.2c0.9,0.5,1.2,2.4,0.9,4.8
		c-0.1,0.6-0.2,1.2-0.3,1.9c-1.2-0.3-2.6-0.5-4-0.7c-0.9-1.2-1.7-2.2-2.6-3.2C18.5,2.5,20.5,1.4,21.8,1.4z M9.9,17
		c0.3,0.5,0.6,1,0.9,1.5C9.9,18.4,9,18.2,8.2,18c0.2-0.8,0.5-1.7,0.9-2.5C9.3,16,9.6,16.5,9.9,17z M8.2,9.6C9,9.4,9.9,9.2,10.8,9.1
		c-0.3,0.5-0.6,1-0.9,1.5c-0.3,0.5-0.6,1-0.8,1.5C8.7,11.2,8.4,10.4,8.2,9.6z M9.8,13.8c0.4-0.8,0.8-1.7,1.3-2.5
		c0.5-0.9,1-1.7,1.5-2.4c0.9-0.1,1.9-0.1,2.9-0.1c1,0,1.9,0,2.8,0.1c0.5,0.8,1,1.6,1.5,2.4c0.5,0.8,0.9,1.7,1.3,2.5
		c-0.4,0.8-0.8,1.7-1.3,2.5c-0.5,0.9-1,1.7-1.5,2.4c-0.9,0.1-1.9,0.1-2.9,0.1c-1,0-1.9,0-2.8-0.1c-0.5-0.8-1-1.6-1.5-2.4
		C10.6,15.5,10.2,14.7,9.8,13.8z M21.1,17c0.3-0.5,0.6-1,0.8-1.5c0.3,0.8,0.6,1.7,0.9,2.5c-0.8,0.2-1.7,0.4-2.6,0.5
		C20.5,18,20.8,17.5,21.1,17z M21.1,10.6c-0.3-0.5-0.6-1-0.9-1.5c0.9,0.1,1.8,0.3,2.6,0.5c-0.2,0.8-0.5,1.7-0.9,2.5
		C21.6,11.6,21.4,11.1,21.1,10.6z M17.2,7.4c-0.6,0-1.1,0-1.7,0c-0.6,0-1.2,0-1.8,0c0.6-0.7,1.2-1.4,1.7-2C16.1,6,16.6,6.6,17.2,7.4
		z M8.4,1.6c0.2-0.1,0.4-0.2,0.7-0.2v0c1.3,0,3.2,1,5.3,2.9c-0.9,0.9-1.8,2-2.6,3.1c-1.4,0.2-2.8,0.4-4,0.7C7.7,7.6,7.6,7,7.5,6.4
		C7.2,4,7.6,2.1,8.4,1.6z M6.8,17.6c-0.6-0.2-1.2-0.4-1.8-0.6c-2.2-1-3.7-2.2-3.7-3.2s1.4-2.2,3.7-3.2c0.5-0.2,1.1-0.4,1.7-0.6
		c0.4,1.2,0.8,2.5,1.4,3.8C7.7,15.1,7.2,16.4,6.8,17.6z M9.2,26.2c-0.3,0-0.5-0.1-0.7-0.2c-0.9-0.5-1.2-2.4-0.9-4.8
		c0.1-0.6,0.2-1.2,0.3-1.9c1.2,0.3,2.6,0.5,4,0.7c0.9,1.2,1.7,2.2,2.6,3.2C12.4,25.1,10.5,26.2,9.2,26.2z M15.5,22.2
		c-0.6-0.6-1.2-1.3-1.8-2c0.6,0,1.1,0,1.7,0c0.6,0,1.2,0,1.8,0C16.7,20.9,16.1,21.6,15.5,22.2z M22.5,26c-0.2,0.1-0.4,0.2-0.7,0.2
		c-1.3,0-3.2-1-5.3-2.9c0.9-0.9,1.8-2,2.6-3.1c1.4-0.2,2.8-0.4,4-0.7c0.1,0.6,0.3,1.2,0.3,1.8C23.7,23.6,23.4,25.5,22.5,26z
		 M25.9,17c-0.5,0.2-1.1,0.4-1.7,0.6c-0.4-1.2-0.8-2.5-1.4-3.8c0.6-1.3,1-2.6,1.4-3.8c0.6,0.2,1.2,0.4,1.8,0.6
		c2.2,1,3.7,2.2,3.7,3.2C29.6,14.8,28.1,16,25.9,17z"/>
	<circle class="st0" cx="15.5" cy="13.8" r="2.9"/>
</g>
</svg>
